<?xml version="1.0" standalone="no"?>
<!DOCTYPE svg PUBLIC "-//W3C//DTD SVG 20010904//EN"
 "http://www.w3.org/TR/2001/REC-SVG-20010904/DTD/svg10.dtd">
<svg version="1.0" xmlns="http://www.w3.org/2000/svg"
 width="2000.000000pt" height="2000.000000pt" viewBox="0 0 2000.000000 2000.000000"
 preserveAspectRatio="xMidYMid meet">
<metadata>
Created by potrace 1.11, written by Peter Selinger 2001-2013
</metadata>
<g transform="translate(0.000000,2000.000000) scale(0.100000,-0.100000)"
fill="#000000" stroke="none">
<path d="M9952 19298 c-61 -89 -49 -61 -662 -1508 -197 -465 -843 -1990 -1435
-3390 -592 -1400 -1284 -3033 -1537 -3630 -2219 -5234 -4255 -10067 -4244
-10077 10 -10 147 -23 351 -33 127 -7 497 -10 874 -8 l654 3 1068 2510 c588
1381 1214 2852 1390 3270 1382 3270 3590 8467 3595 8462 4 -4 2613 -6159 3934
-9282 l1307 -3090 -111 -7 c-125 -7 -3815 -26 -6731 -34 -1056 -2 -2016 -7
-2132 -10 l-213 -6 0 -909 0 -909 4333 0 c2382 0 4863 5 5512 10 1159 10 2008
24 2025 35 5 3 -3 33 -17 68 -498 1236 -7664 18160 -7825 18482 -56 111 -88
123 -136 53z"/>
</g>
</svg>
